<?xml version="1.0" encoding="UTF-8" standalone="no"?>
<svg xmlns="http://www.w3.org/2000/svg" stroke-linecap="square" version="1.1" stroke-miterlimit="10" xmlns:xlink="http://www.w3.org/1999/xlink" viewBox="0.0 0.0 400.0 152.0" fill="none">
 <clipPath id="p.0">
  <path d="m0 0h400v152h-400v-152z"/>
 </clipPath>
 <g fill-rule="evenodd" clip-path="url(#p.0)">
  <path fill-opacity="0" d="m0 0h400v152h-400z" fill="#FFF"/>
  <path fill-opacity="0" d="m8 104v-96.002h56" fill="#FFF"/>
  <path stroke-linejoin="round" d="m8 104v-96.002h56" stroke="#FFF" stroke-linecap="butt" stroke-width="16"/>
  <path fill-opacity="0" d="m80 0v112" fill="#FFF"/>
  <path stroke-linejoin="round" d="m80 0v112" stroke="#FFF" stroke-linecap="butt" stroke-width="16"/>
  <path fill-opacity="0" d="m104 104v-55.997h47.998v55.997z" fill="#FFF"/>
  <path stroke-linejoin="round" d="m104 104v-55.997h47.998v55.997z" stroke="#FFF" stroke-linecap="butt" stroke-width="16"/>
  <path fill-opacity="0" d="m176 40v64l24-24 24 24v-64" fill="#FFF"/>
  <path stroke-linejoin="round" d="m176 40v64l24-24 24 24v-64" stroke="#FFF" stroke-linecap="butt" stroke-width="16"/>
  <path fill-opacity="0" d="m8 112v-64.002h40" fill="#FFF"/>
  <path stroke-linejoin="round" d="m8 112v-64.002h40" stroke="#FFF" stroke-linecap="butt" stroke-width="16"/>
  <path fill-opacity="0" d="m320 40v72" fill="#FFF"/>
  <path stroke-linejoin="round" d="m320 40v72" stroke="#FFF" stroke-linecap="butt" stroke-width="16"/>
  <path d="m320 16v-16" fill="#fff"/>
  <path stroke-linejoin="round" d="m320 16v-16" stroke="#FFF" stroke-linecap="butt" stroke-width="16"/>
  <path fill-opacity="0" d="m0 144h392v-96l-48 0.0026245v56h24" fill="#FFF"/>
  <path stroke-linejoin="round" d="m0 144h392v-96l-48 0.0026245v56h24" stroke="#FFF" stroke-linecap="butt" stroke-width="16"/>
  <path fill-opacity="0" d="m296 56v32" fill="#FFF"/>
  <path stroke-linejoin="round" d="m296 56v32" stroke="#FFF" stroke-linecap="round" stroke-width="16"/>
  <path fill-opacity="0" d="m248 48v-40h48" fill="#FFF"/>
  <path stroke-linejoin="round" d="m248 48v-40h48" stroke="#FFF" stroke-linecap="butt" stroke-width="16"/>
  <path fill-opacity="0" d="m248 112v-64.003h48" fill="#FFF"/>
  <path stroke-linejoin="round" d="m248 112v-64.003h48" stroke="#FFF" stroke-linecap="butt" stroke-width="16"/>
  <path fill-opacity="0" d="m296 8v32" fill="#FFF"/>
  <path stroke-linejoin="round" d="m296 8v32" stroke="#FFF" stroke-linecap="round" stroke-width="16"/>
  <path fill-opacity="0" d="m296 88v24" fill="#FFF"/>
  <path stroke-linejoin="round" d="m296 88v24" stroke="#FFF" stroke-linecap="butt" stroke-width="16"/>
 </g>
</svg>
